<?xml version="1.0" encoding="UTF-8" ?>
<!DOCTYPE svg PUBLIC "-//W3C//DTD SVG 1.1//EN" "http://www.w3.org/Graphics/SVG/1.1/DTD/svg11.dtd">
<svg width="803pt" height="714pt" viewBox="0 0 803 714" version="1.1" xmlns="http://www.w3.org/2000/svg">
<g id="#f79421ff">
<path fill="#f79421" opacity="1.00" d=" M 91.44 0.00 L 94.54 0.00 C 96.13 0.42 97.70 0.94 99.20 1.62 C 165.50 34.68 231.88 67.60 298.17 100.69 C 301.75 102.86 306.01 102.20 309.99 102.26 C 324.67 102.19 339.36 102.43 354.03 101.99 C 384.34 102.01 414.65 102.00 444.97 101.99 C 461.31 102.53 477.67 102.10 494.02 102.29 C 496.21 102.22 498.54 102.52 500.56 101.46 C 566.24 68.79 631.91 36.10 697.60 3.43 C 700.39 2.01 703.21 0.45 706.37 0.00 L 708.65 0.00 C 715.87 0.51 721.51 8.00 719.74 15.09 C 711.65 57.00 703.50 98.89 695.40 140.79 C 694.11 148.16 692.28 155.44 691.28 162.84 C 695.27 172.59 700.34 181.92 704.71 191.51 C 724.96 233.89 745.21 276.26 765.46 318.63 C 777.93 344.95 790.76 371.11 803.00 397.53 L 803.00 403.69 C 802.05 407.07 799.82 410.04 796.71 411.72 C 727.17 450.49 657.59 489.22 588.04 527.99 C 585.51 529.45 582.77 530.60 580.51 532.48 C 522.56 591.88 464.80 651.46 406.68 710.70 C 405.06 712.32 402.95 713.31 400.80 714.00 L 395.10 714.00 C 392.18 713.31 389.70 711.53 387.69 709.36 C 369.53 690.82 351.24 672.39 333.05 653.88 C 331.28 651.93 330.42 649.36 328.71 647.38 C 291.10 608.99 253.82 570.26 216.12 531.98 C 183.04 512.60 149.59 493.83 116.39 474.66 C 79.72 453.65 43.05 432.64 6.38 411.63 C 2.92 409.72 0.65 406.18 0.00 402.32 L 0.00 399.28 C 0.72 395.64 2.53 392.37 4.09 389.05 C 39.15 313.73 74.23 238.41 109.29 163.09 C 100.15 115.80 90.97 68.53 81.81 21.25 C 81.05 16.95 79.46 12.42 81.15 8.13 C 82.63 3.68 86.85 0.60 91.44 0.00 M 109.96 34.98 C 117.88 75.60 125.71 116.24 133.61 156.87 C 134.44 161.06 135.69 165.67 133.82 169.77 C 107.48 226.58 80.87 283.27 54.61 340.12 C 108.83 285.84 162.54 231.04 216.68 176.68 C 226.22 166.52 236.48 157.06 245.98 146.88 C 255.85 137.10 265.60 127.22 275.32 117.30 C 220.21 89.84 165.06 62.47 109.96 34.98 M 523.17 118.29 C 598.19 192.51 673.13 266.81 748.29 340.89 C 721.13 284.00 693.92 227.13 666.76 170.24 C 665.54 167.73 665.17 164.85 665.75 162.12 C 673.93 119.78 682.22 77.46 690.33 35.10 C 634.58 62.78 578.85 90.48 523.17 118.29 M 303.09 128.05 C 258.74 172.37 214.42 216.72 170.08 261.05 C 124.50 306.82 78.52 352.17 32.94 397.93 C 89.78 430.49 146.60 463.07 203.45 495.62 C 213.03 501.37 223.09 506.39 232.39 512.57 C 269.80 550.91 307.15 589.34 344.54 627.70 C 358.45 617.57 372.38 607.47 386.27 597.30 C 386.23 440.53 386.26 283.77 386.25 127.00 C 359.82 126.82 333.40 127.46 306.97 127.22 C 305.67 127.36 304.03 126.86 303.09 128.05 M 411.24 127.01 C 411.24 283.87 411.27 440.74 411.23 597.60 C 424.80 607.89 438.40 618.13 452.01 628.36 C 489.65 589.89 527.11 551.24 564.69 512.73 C 566.55 511.07 568.82 509.99 570.97 508.77 C 637.32 471.82 703.65 434.84 770.01 397.90 C 687.22 315.73 604.14 233.86 521.30 151.74 C 512.82 143.86 505.08 135.18 496.50 127.43 C 482.34 127.00 468.13 127.37 453.95 127.26 C 439.72 126.75 425.48 127.10 411.24 127.01 M 361.80 647.31 C 373.79 659.49 385.84 671.62 397.81 683.82 C 410.07 671.46 422.18 658.94 434.36 646.50 C 422.43 637.54 410.54 628.53 398.62 619.57 C 386.34 628.80 374.11 638.11 361.80 647.31 Z" />
</g>
</svg>
